<svg xmlns="http://www.w3.org/2000/svg" viewBox="0 0 960 320" font-family="system-ui, -apple-system, 'Segoe UI', sans-serif">
<defs>
  <filter id="soft" x="-20%" y="-20%" width="140%" height="140%">
    <feDropShadow dx="0" dy="2" stdDeviation="4" flood-color="rgba(0,0,0,0.45)"/>
  </filter>
  <linearGradient id="acc" x1="0" y1="0" x2="1" y2="1">
    <stop offset="0" stop-color="#f09040"/>
    <stop offset="1" stop-color="#e86a2b"/>
  </linearGradient>
  <marker id="arr" viewBox="0 0 10 10" refX="8" refY="5" markerWidth="7" markerHeight="7" orient="auto-start-reverse">
    <path d="M0,0 L10,5 L0,10 z" fill="#f09040"/>
  </marker>
</defs>
<g filter="url(#soft)"><rect x="14" y="30" width="212" height="86" rx="14" fill="#0f2040" stroke="#24466b" stroke-width="1.5"/></g>
<text x="120.0" y="66.0" text-anchor="middle" font-size="15.5" font-weight="600" fill="#e8f1f8">Character sheet</text>
<text x="120.0" y="88.0" text-anchor="middle" font-size="12" fill="#8fa9bf">identity · voice · boundaries</text>
<path d="M229,73.0 L247,73.0" stroke="#4a6a8c" stroke-width="2" fill="none" marker-end="url(#arr)"/>
<g filter="url(#soft)"><rect x="252" y="30" width="212" height="86" rx="14" fill="#0f2040" stroke="#24466b" stroke-width="1.5"/></g>
<text x="358.0" y="66.0" text-anchor="middle" font-size="15.5" font-weight="600" fill="#e8f1f8">Teacher LLM</text>
<text x="358.0" y="88.0" text-anchor="middle" font-size="12" fill="#8fa9bf">writes in-character dialogues</text>
<path d="M467,73.0 L485,73.0" stroke="#4a6a8c" stroke-width="2" fill="none" marker-end="url(#arr)"/>
<g filter="url(#soft)"><rect x="490" y="30" width="212" height="86" rx="14" fill="#0f2040" stroke="#24466b" stroke-width="1.5"/></g>
<text x="596.0" y="66.0" text-anchor="middle" font-size="15.5" font-weight="600" fill="#e8f1f8">Synthetic corpus</text>
<text x="596.0" y="88.0" text-anchor="middle" font-size="12" fill="#8fa9bf">~565k dialogues · 38M tokens</text>
<path d="M705,73.0 L723,73.0" stroke="#4a6a8c" stroke-width="2" fill="none" marker-end="url(#arr)"/>
<g filter="url(#soft)"><rect x="728" y="30" width="212" height="86" rx="14" fill="#0f2040" stroke="#24466b" stroke-width="1.5"/></g>
<text x="834.0" y="66.0" text-anchor="middle" font-size="15.5" font-weight="600" fill="#e8f1f8">Quality filter</text>
<text x="834.0" y="88.0" text-anchor="middle" font-size="12" fill="#8fa9bf">typography · dialect · dedup</text>
<g filter="url(#soft)"><rect x="728" y="196" width="212" height="86" rx="14" fill="#0f2040" stroke="#24466b" stroke-width="1.5"/></g>
<text x="834.0" y="232.0" text-anchor="middle" font-size="15.5" font-weight="600" fill="#e8f1f8">BPE tokenizer</text>
<text x="834.0" y="254.0" text-anchor="middle" font-size="12" fill="#8fa9bf">ByteLevel · 6k vocab</text>
<path d="M725,239.0 L707,239.0" stroke="#4a6a8c" stroke-width="2" fill="none" marker-end="url(#arr)"/>
<g filter="url(#soft)"><rect x="490" y="196" width="212" height="86" rx="14" fill="#0f2040" stroke="#24466b" stroke-width="1.5"/></g>
<text x="596.0" y="232.0" text-anchor="middle" font-size="15.5" font-weight="600" fill="#e8f1f8">Train from scratch</text>
<text x="596.0" y="254.0" text-anchor="middle" font-size="12" fill="#8fa9bf">S 5M · M 9.5M · L 20M</text>
<path d="M487,239.0 L469,239.0" stroke="#4a6a8c" stroke-width="2" fill="none" marker-end="url(#arr)"/>
<g filter="url(#soft)"><rect x="252" y="196" width="212" height="86" rx="14" fill="#0f2040" stroke="#24466b" stroke-width="1.5"/></g>
<text x="358.0" y="232.0" text-anchor="middle" font-size="15.5" font-weight="600" fill="#e8f1f8">ONNX export</text>
<text x="358.0" y="254.0" text-anchor="middle" font-size="12" fill="#8fa9bf">opset 17 · fp32</text>
<path d="M249,239.0 L231,239.0" stroke="#4a6a8c" stroke-width="2" fill="none" marker-end="url(#arr)"/>
<g filter="url(#soft)"><rect x="14" y="196" width="212" height="86" rx="14" fill="url(#acc)" stroke="#e86a2b" stroke-width="1.5"/></g>
<text x="120.0" y="232.0" text-anchor="middle" font-size="15.5" font-weight="600" fill="#ffffff">Your browser</text>
<text x="120.0" y="254.0" text-anchor="middle" font-size="12" fill="rgba(255,255,255,0.85)">on-device · no server</text>
<path d="M834.0,118 C834.0,157.0 834.0,157.0 834.0,192" stroke="#4a6a8c" stroke-width="2" fill="none" marker-end="url(#arr)"/>
</svg>
